<?xml version="1.0" encoding="utf-8"?>
<!-- Generator: Adobe Illustrator 16.0.0, SVG Export Plug-In . SVG Version: 6.00 Build 0)  -->
<!DOCTYPE svg PUBLIC "-//W3C//DTD SVG 1.1//EN" "http://www.w3.org/Graphics/SVG/1.1/DTD/svg11.dtd">
<svg version="1.1" id="Layer_1" xmlns="http://www.w3.org/2000/svg" xmlns:xlink="http://www.w3.org/1999/xlink" x="0px" y="0px"
	 width="800px" height="330px" viewBox="0 0 800 330" enable-background="new 0 0 800 330" xml:space="preserve">
<polygon fill="#E6E6E6" points="0,108 0,107.928 -0.044,108 0,108.071 "/>
<polygon fill="#E6E6E6" points="800,108 800,108.071 800.044,108 800,107.928 "/>
<g>
	<polygon fill="#D9D9D9" points="299.956,330.071 300,330.071 299.978,330.035 	"/>
	<polygon fill="#D9D9D9" points="799.956,330.071 800,330.071 799.979,330.035 	"/>
	<polygon fill="#D9D9D9" points="199.956,330.071 200,330.071 199.978,330.035 	"/>
	<polygon fill="#D9D9D9" points="99.956,330.071 100,330.071 99.978,330.035 	"/>
	<polygon fill="#D9D9D9" points="100,330.071 100.044,330.071 100.022,330.035 	"/>
	<polygon fill="#D9D9D9" points="700,330.071 700.044,330.071 700.021,330.035 	"/>
	<polygon fill="#D9D9D9" points="0,330.071 0.044,330.071 0.022,330.035 	"/>
	<polygon fill="#D9D9D9" points="200,330.071 200.044,330.071 200.022,330.035 	"/>
	<polygon fill="#D9D9D9" points="500,330.071 500.044,330.071 500.021,330.035 	"/>
	<polygon fill="#D9D9D9" points="599.956,330.071 600,330.071 599.979,330.035 	"/>
	<polygon fill="#D9D9D9" points="600,330.071 600.044,330.071 600.021,330.035 	"/>
	<polygon fill="#D9D9D9" points="499.956,330.071 500,330.071 499.979,330.035 	"/>
	<polygon fill="#D9D9D9" points="399.956,330.071 400,330.071 399.978,330.035 	"/>
	<polygon fill="#D9D9D9" points="699.956,330.071 700,330.071 699.979,330.035 	"/>
	<polygon fill="#D9D9D9" points="300,330.071 300.044,330.071 300.022,330.035 	"/>
	<polygon fill="#D9D9D9" points="400,330.071 400.044,330.071 400.022,330.035 	"/>
	<polygon fill="#D9D9D9" points="50.022,249.035 50,249.071 49.978,249.035 0.022,330.035 0.044,330.071 99.956,330.071 
		99.978,330.035 	"/>
	<polygon fill="#D9D9D9" points="150.022,249.035 150,249.071 149.978,249.035 100.022,330.035 100.044,330.071 199.956,330.071 
		199.978,330.035 	"/>
	<polygon fill="#D9D9D9" points="250.022,249.035 250,249.071 249.978,249.035 200.022,330.035 200.044,330.071 299.956,330.071 
		299.978,330.035 	"/>
	<polygon fill="#D9D9D9" points="350.022,249.035 350,249.071 349.978,249.035 300.022,330.035 300.044,330.071 399.956,330.071 
		399.978,330.035 	"/>
	<polygon fill="#D9D9D9" points="450.021,249.035 450,249.071 449.979,249.035 400.022,330.035 400.044,330.071 499.956,330.071 
		499.979,330.035 	"/>
	<polygon fill="#D9D9D9" points="550.021,249.035 550,249.071 549.979,249.035 500.021,330.035 500.044,330.071 599.956,330.071 
		599.979,330.035 	"/>
	<polygon fill="#D9D9D9" points="650.021,249.035 650,249.071 649.979,249.035 600.021,330.035 600.044,330.071 699.956,330.071 
		699.979,330.035 	"/>
	<polygon fill="#D9D9D9" points="750.021,249.035 750,249.071 749.979,249.035 700.021,330.035 700.044,330.071 799.956,330.071 
		799.979,330.035 	"/>
	<polygon fill="#D9D9D9" points="0,330 0,330.071 0.022,330.035 	"/>
	<polygon fill="#D9D9D9" points="0,330 0.022,330.035 49.978,249.035 49.956,249 	"/>
	<polygon fill="#D9D9D9" points="100,330 99.978,330.035 100,330.071 100.022,330.035 	"/>
	<polygon fill="#D9D9D9" points="50.022,249.035 99.978,330.035 100,330 50.044,249 	"/>
	<polygon fill="#D9D9D9" points="100,330 100.022,330.035 149.978,249.035 149.956,249 	"/>
	<polygon fill="#D9D9D9" points="200,330 199.978,330.035 200,330.071 200.022,330.035 	"/>
	<polygon fill="#D9D9D9" points="150.022,249.035 199.978,330.035 200,330 150.044,249 	"/>
	<polygon fill="#D9D9D9" points="200,330 200.022,330.035 249.978,249.035 249.956,249 	"/>
	<polygon fill="#D9D9D9" points="300,330 299.978,330.035 300,330.071 300.022,330.035 	"/>
	<polygon fill="#D9D9D9" points="250.022,249.035 299.978,330.035 300,330 250.044,249 	"/>
	<polygon fill="#D9D9D9" points="300,330 300.022,330.035 349.978,249.035 349.956,249 	"/>
	<polygon fill="#D9D9D9" points="400,330 399.978,330.035 400,330.071 400.022,330.035 	"/>
	<polygon fill="#D9D9D9" points="350.022,249.035 399.978,330.035 400,330 350.044,249 	"/>
	<polygon fill="#D9D9D9" points="400,330 400.022,330.035 449.979,249.035 449.956,249 	"/>
	<polygon fill="#D9D9D9" points="500,330 499.979,330.035 500,330.071 500.021,330.035 	"/>
	<polygon fill="#D9D9D9" points="450.021,249.035 499.979,330.035 500,330 450.044,249 	"/>
	<polygon fill="#D9D9D9" points="500,330 500.021,330.035 549.979,249.035 549.956,249 	"/>
	<polygon fill="#D9D9D9" points="600,330 599.979,330.035 600,330.071 600.021,330.035 	"/>
	<polygon fill="#D9D9D9" points="550.021,249.035 599.979,330.035 600,330 550.044,249 	"/>
	<polygon fill="#D9D9D9" points="600,330 600.021,330.035 649.979,249.035 649.956,249 	"/>
	<polygon fill="#D9D9D9" points="700,330 699.979,330.035 700,330.071 700.021,330.035 	"/>
	<polygon fill="#D9D9D9" points="650.021,249.035 699.979,330.035 700,330 650.044,249 	"/>
	<polygon fill="#D9D9D9" points="700,330 700.021,330.035 749.979,249.035 749.956,249 	"/>
	<polygon fill="#D9D9D9" points="799.979,330.035 800,330.071 800,330 	"/>
	<polygon fill="#D9D9D9" points="750.021,249.035 799.979,330.035 800,330 750.044,249 	"/>
</g>
<polygon fill="#999999" points="49.978,248.964 50,249 50.022,248.964 50,248.928 "/>
<polygon fill="#999999" points="49.978,249.035 50,249.071 50.022,249.035 50,249 "/>
<polygon fill="#999999" points="49.978,248.964 49.956,249 49.978,249.035 50,249 "/>
<polygon fill="#999999" points="50.022,248.964 50,249 50.022,249.035 50.044,249 "/>
<polygon fill="#999999" points="149.978,248.964 150,249 150.022,248.964 150,248.928 "/>
<polygon fill="#999999" points="149.978,249.035 150,249.071 150.022,249.035 150,249 "/>
<polygon fill="#999999" points="149.978,248.964 149.956,249 149.978,249.035 150,249 "/>
<polygon fill="#999999" points="150.022,248.964 150,249 150.022,249.035 150.044,249 "/>
<polygon fill="#999999" points="249.978,249.035 250,249.071 250.022,249.035 250,249 "/>
<polygon fill="#999999" points="249.978,248.964 250,249 250.022,248.964 250,248.928 "/>
<polygon fill="#999999" points="249.978,248.964 249.956,249 249.978,249.035 250,249 "/>
<polygon fill="#999999" points="250.022,248.964 250,249 250.022,249.035 250.044,249 "/>
<polygon fill="#999999" points="349.978,249.035 350,249.071 350.022,249.035 350,249 "/>
<polygon fill="#999999" points="349.978,248.964 350,249 350.022,248.964 350,248.928 "/>
<polygon fill="#999999" points="349.978,248.964 349.956,249 349.978,249.035 350,249 "/>
<polygon fill="#999999" points="350.022,248.964 350,249 350.022,249.035 350.044,249 "/>
<polygon fill="#999999" points="449.978,248.964 450,249 450.022,248.964 450,248.928 "/>
<polygon fill="#999999" points="449.979,249.035 450,249.071 450.021,249.035 450,249 "/>
<polygon fill="#999999" points="449.978,248.964 449.956,249 449.979,249.035 450,249 "/>
<polygon fill="#999999" points="450.022,248.964 450,249 450.021,249.035 450.044,249 "/>
<polygon fill="#999999" points="549.979,249.035 550,249.071 550.021,249.035 550,249 "/>
<polygon fill="#999999" points="549.978,248.964 550,249 550.022,248.964 550,248.928 "/>
<polygon fill="#999999" points="549.978,248.964 549.956,249 549.979,249.035 550,249 "/>
<polygon fill="#999999" points="550.022,248.964 550,249 550.021,249.035 550.044,249 "/>
<polygon fill="#999999" points="649.978,248.964 650,249 650.022,248.964 650,248.928 "/>
<polygon fill="#999999" points="649.979,249.035 650,249.071 650.021,249.035 650,249 "/>
<polygon fill="#999999" points="649.978,248.964 649.956,249 649.979,249.035 650,249 "/>
<polygon fill="#999999" points="650.022,248.964 650,249 650.021,249.035 650.044,249 "/>
<polygon fill="#999999" points="749.978,248.964 750,249 750.022,248.964 750,248.928 "/>
<polygon fill="#999999" points="749.979,249.035 750,249.071 750.021,249.035 750,249 "/>
<polygon fill="#999999" points="749.978,248.964 749.956,249 749.979,249.035 750,249 "/>
<g>
	<polygon fill="#DEDEDE" points="0.022,168.106 0,168.143 0,330.071 49.956,249.071 	"/>
	<polygon fill="#DEDEDE" points="100.022,168.106 100,168.143 99.978,168.106 50.044,249.071 100,330.071 149.956,249.071 	"/>
	<polygon fill="#DEDEDE" points="200.022,168.106 200,168.143 199.978,168.106 150.044,249.071 200,330.071 249.956,249.071 	"/>
	<polygon fill="#DEDEDE" points="300.022,168.106 300,168.143 299.978,168.106 250.044,249.071 300,330.071 349.956,249.071 	"/>
	<polygon fill="#DEDEDE" points="400.022,168.106 400,168.143 399.978,168.106 350.044,249.071 400,330.071 449.956,249.071 	"/>
	<polygon fill="#DEDEDE" points="500.021,168.106 500,168.143 499.979,168.106 450.044,249.071 500,330.071 549.956,249.071 	"/>
	<polygon fill="#DEDEDE" points="600.021,168.106 600,168.143 599.979,168.106 550.044,249.071 600,330.071 649.956,249.071 	"/>
	<polygon fill="#DEDEDE" points="700.021,168.106 700,168.143 699.979,168.106 650.044,249.071 700,330.071 749.956,249.071 	"/>
	<polygon fill="#DEDEDE" points="750.044,249.071 800,330.071 800,168.143 799.979,168.106 	"/>
	<polygon fill="#DEDEDE" points="0.022,168.106 49.956,249.071 49.978,249.035 0.044,168.071 	"/>
	<polygon fill="#DEDEDE" points="50.022,249.035 50.044,249.071 99.978,168.106 99.956,168.071 	"/>
	<polygon fill="#DEDEDE" points="100.022,168.106 149.956,249.071 149.978,249.035 100.044,168.071 	"/>
	<polygon fill="#DEDEDE" points="150.022,249.035 150.044,249.071 199.978,168.106 199.956,168.071 	"/>
	<polygon fill="#DEDEDE" points="200.022,168.106 249.956,249.071 249.978,249.035 200.044,168.071 	"/>
	<polygon fill="#DEDEDE" points="250.022,249.035 250.044,249.071 299.978,168.106 299.956,168.071 	"/>
	<polygon fill="#DEDEDE" points="300.022,168.106 349.956,249.071 349.978,249.035 300.044,168.071 	"/>
	<polygon fill="#DEDEDE" points="350.022,249.035 350.044,249.071 399.978,168.106 399.956,168.071 	"/>
	<polygon fill="#DEDEDE" points="400.022,168.106 449.956,249.071 449.978,249.035 400.044,168.071 	"/>
	<polygon fill="#DEDEDE" points="450.022,249.035 450.044,249.071 499.979,168.106 499.956,168.071 	"/>
	<polygon fill="#DEDEDE" points="500.021,168.106 549.956,249.071 549.978,249.035 500.044,168.071 	"/>
	<polygon fill="#DEDEDE" points="550.022,249.035 550.044,249.071 599.979,168.106 599.956,168.071 	"/>
	<polygon fill="#DEDEDE" points="600.021,168.106 649.956,249.071 649.978,249.035 600.044,168.071 	"/>
	<polygon fill="#DEDEDE" points="650.022,249.035 650.044,249.071 699.979,168.106 699.956,168.071 	"/>
	<polygon fill="#DEDEDE" points="700.021,168.106 749.956,249.071 749.978,249.035 700.044,168.071 	"/>
	<polygon fill="#DEDEDE" points="750.022,249.035 750.044,249.071 799.979,168.106 799.956,168.071 	"/>
</g>
<polygon fill="#999999" points="750.022,248.964 750,249 750.021,249.035 750.044,249 "/>
<polygon fill="#999999" points="0,108 0,108.071 0.022,108.035 "/>
<polygon fill="#999999" points="0,107.928 0,108 0.022,107.964 "/>
<polygon fill="#999999" points="0.044,108 0.022,107.964 0,108 0.022,108.035 "/>
<polygon fill="#999999" points="100.022,107.964 100,107.928 99.978,107.964 100,108 "/>
<polygon fill="#999999" points="99.978,108.035 100,108.071 100.022,108.035 100,108 "/>
<polygon fill="#999999" points="99.978,107.964 99.956,108 99.978,108.035 100,108 "/>
<polygon fill="#999999" points="100.022,107.964 100,108 100.022,108.035 100.044,108 "/>
<polygon fill="#999999" points="200.022,107.964 200,107.928 199.978,107.964 200,108 "/>
<polygon fill="#999999" points="199.978,108.035 200,108.071 200.022,108.035 200,108 "/>
<polygon fill="#999999" points="199.978,107.964 199.956,108 199.978,108.035 200,108 "/>
<polygon fill="#999999" points="200.022,107.964 200,108 200.022,108.035 200.044,108 "/>
<polygon fill="#999999" points="299.978,108.035 300,108.071 300.022,108.035 300,108 "/>
<polygon fill="#999999" points="300.022,107.964 300,107.928 299.978,107.964 300,108 "/>
<polygon fill="#999999" points="299.978,107.964 299.956,108 299.978,108.035 300,108 "/>
<polygon fill="#999999" points="300.022,107.964 300,108 300.022,108.035 300.044,108 "/>
<polygon fill="#999999" points="399.978,108.035 400,108.071 400.022,108.035 400,108 "/>
<polygon fill="#999999" points="400.022,107.964 400,107.928 399.978,107.964 400,108 "/>
<polygon fill="#999999" points="399.978,107.964 399.956,108 399.978,108.035 400,108 "/>
<polygon fill="#999999" points="400.022,107.964 400,108 400.022,108.035 400.044,108 "/>
<polygon fill="#999999" points="499.979,108.035 500,108.071 500.021,108.035 500,108 "/>
<polygon fill="#999999" points="500.022,107.964 500,107.928 499.978,107.964 500,108 "/>
<polygon fill="#999999" points="499.978,107.964 499.956,108 499.979,108.035 500,108 "/>
<polygon fill="#999999" points="500.022,107.964 500,108 500.021,108.035 500.044,108 "/>
<polygon fill="#999999" points="599.979,108.035 600,108.071 600.021,108.035 600,108 "/>
<polygon fill="#999999" points="600.022,107.964 600,107.928 599.978,107.964 600,108 "/>
<polygon fill="#999999" points="599.978,107.964 599.956,108 599.979,108.035 600,108 "/>
<polygon fill="#999999" points="600.022,107.964 600,108 600.021,108.035 600.044,108 "/>
<polygon fill="#999999" points="699.979,108.035 700,108.071 700.021,108.035 700,108 "/>
<polygon fill="#999999" points="700.022,107.964 700,107.928 699.978,107.964 700,108 "/>
<polygon fill="#999999" points="699.978,107.964 699.956,108 699.979,108.035 700,108 "/>
<polygon fill="#999999" points="700.022,107.964 700,108 700.021,108.035 700.044,108 "/>
<polygon fill="#999999" points="800,107.928 799.978,107.964 800,108 "/>
<polygon fill="#999999" points="799.979,108.035 800,108.071 800,108 "/>
<polygon fill="#999999" points="799.979,108.035 800,108 799.978,107.964 799.956,108 "/>
<g>
	<polygon fill="#EBEBEB" points="0.022,168.16 49.978,87.16 0,6.124 0,168.124 	"/>
	<polygon fill="#EBEBEB" points="100,168.124 100.022,168.16 149.978,87.16 100,6.124 50.022,87.16 99.978,168.16 	"/>
	<polygon fill="#EBEBEB" points="200,168.124 200.022,168.16 249.978,87.16 200,6.124 150.022,87.16 199.978,168.16 	"/>
	<polygon fill="#EBEBEB" points="300,168.124 300.022,168.16 349.978,87.16 300,6.124 250.022,87.16 299.978,168.16 	"/>
	<polygon fill="#EBEBEB" points="400,168.124 400.022,168.16 449.978,87.16 400,6.124 350.022,87.16 399.978,168.16 	"/>
	<polygon fill="#EBEBEB" points="500,168.124 500.022,168.16 549.978,87.16 500,6.124 450.022,87.16 499.978,168.16 	"/>
	<polygon fill="#EBEBEB" points="600,168.124 600.022,168.16 649.978,87.16 600,6.124 550.022,87.16 599.978,168.16 	"/>
	<polygon fill="#EBEBEB" points="700,168.124 700.022,168.16 749.978,87.16 700,6.124 650.022,87.16 699.978,168.16 	"/>
	<polygon fill="#EBEBEB" points="799.978,168.16 800,168.124 800,6.124 750.022,87.16 	"/>
</g>
<polygon fill="#999999" points="50.022,-33.036 50,-33.072 49.978,-33.036 50,-33 "/>
<polygon fill="#999999" points="150.022,-33.036 150,-33.072 149.978,-33.036 150,-33 "/>
<polygon fill="#999999" points="250.022,-33.036 250,-33.072 249.978,-33.036 250,-33 "/>
<polygon fill="#999999" points="350.022,-33.036 350,-33.072 349.978,-33.036 350,-33 "/>
<polygon fill="#999999" points="450.022,-33.036 450,-33.072 449.978,-33.036 450,-33 "/>
<polygon fill="#999999" points="550.022,-33.036 550,-33.072 549.978,-33.036 550,-33 "/>
<polygon fill="#999999" points="650.022,-33.036 650,-33.072 649.978,-33.036 650,-33 "/>
<polygon fill="#999999" points="750.022,-33.036 750,-33.072 749.978,-33.036 750,-33 "/>
<g>
	<polygon fill="#E3E3E3" points="50,87.143 0.044,168.143 49.978,249.106 50,249.07 50.022,249.106 99.956,168.143 	"/>
	<polygon fill="#E3E3E3" points="150,87.143 100.044,168.143 149.978,249.106 150,249.07 150.022,249.106 199.956,168.143 	"/>
	<polygon fill="#E3E3E3" points="250,87.143 200.044,168.143 249.978,249.106 250,249.07 250.022,249.106 299.956,168.143 	"/>
	<polygon fill="#E3E3E3" points="350,87.143 300.044,168.143 349.978,249.106 350,249.07 350.022,249.106 399.956,168.143 	"/>
	<polygon fill="#E3E3E3" points="450,87.143 400.044,168.143 449.978,249.106 450,249.07 450.022,249.106 499.956,168.143 	"/>
	<polygon fill="#E3E3E3" points="550,87.143 500.044,168.143 549.978,249.106 550,249.07 550.022,249.106 599.956,168.143 	"/>
	<polygon fill="#E3E3E3" points="650,87.143 600.044,168.143 649.978,249.106 650,249.07 650.022,249.106 699.956,168.143 	"/>
	<polygon fill="#E3E3E3" points="750,87.143 700.044,168.143 749.978,249.106 750,249.07 750.022,249.106 799.956,168.143 	"/>
	<polygon fill="#E3E3E3" points="50,87.143 49.978,87.106 0.022,168.106 0.044,168.143 	"/>
	<polygon fill="#E3E3E3" points="99.956,168.143 99.978,168.106 50.022,87.106 50,87.143 	"/>
	<polygon fill="#E3E3E3" points="100.044,168.143 150,87.143 149.978,87.106 100.022,168.106 	"/>
	<polygon fill="#E3E3E3" points="199.956,168.143 199.978,168.106 150.022,87.106 150,87.143 	"/>
	<polygon fill="#E3E3E3" points="200.044,168.143 250,87.143 249.978,87.106 200.022,168.106 	"/>
	<polygon fill="#E3E3E3" points="299.956,168.143 299.978,168.106 250.022,87.106 250,87.143 	"/>
	<polygon fill="#E3E3E3" points="300.044,168.143 350,87.143 349.978,87.106 300.022,168.106 	"/>
	<polygon fill="#E3E3E3" points="399.956,168.143 399.978,168.106 350.022,87.106 350,87.143 	"/>
	<polygon fill="#E3E3E3" points="400.044,168.143 450,87.143 449.978,87.106 400.022,168.106 	"/>
	<polygon fill="#E3E3E3" points="499.956,168.143 499.978,168.106 450.022,87.106 450,87.143 	"/>
	<polygon fill="#E3E3E3" points="500.044,168.143 550,87.143 549.978,87.106 500.022,168.106 	"/>
	<polygon fill="#E3E3E3" points="599.956,168.143 599.978,168.106 550.022,87.106 550,87.143 	"/>
	<polygon fill="#E3E3E3" points="600.044,168.143 650,87.143 649.978,87.106 600.022,168.106 	"/>
	<polygon fill="#E3E3E3" points="699.956,168.143 699.978,168.106 650.022,87.106 650,87.143 	"/>
	<polygon fill="#E3E3E3" points="700.044,168.143 750,87.143 749.978,87.106 700.022,168.106 	"/>
	<polygon fill="#E3E3E3" points="799.956,168.143 799.978,168.106 750.022,87.106 750,87.143 	"/>
</g>
</svg>
