<svg xmlns="http://www.w3.org/2000/svg" xmlns:xlink="http://www.w3.org/1999/xlink" version="1.1" id="Layer_1" x="0px" y="0px" viewBox="0 0 160.2 120" enable-background="new 0 0 160.2 70.6" xml:space="preserve">
	<style>
		path { fill: #ccc; }
	</style>
  <g>
    <g>
      <path d="M7.7 22H0V0.8h7.7c5 0 7.5 3.4 7.5 10.3C15.3 18.4 12.7 22 7.7 22zM13.3 11.1c0-5.7-1.9-8.6-5.6-8.6H1.9v17.8h5.8C11.4 20.4 13.3 17.3 13.3 11.1z"/>
      <path d="M18.7 14.4c0-2.9 0.5-4.9 1.4-6.1 1-1.2 2.6-1.8 4.9-1.8 2.3 0 4 0.6 4.9 1.8 1 1.2 1.4 3.2 1.4 6.1 0 2.9-0.4 4.9-1.3 6.1 -0.9 1.2-2.6 1.8-5.1 1.8 -2.5 0-4.2-0.6-5.1-1.8C19.2 19.3 18.7 17.2 18.7 14.4zM20.6 14.3c0 2.4 0.3 4.1 0.8 5 0.6 0.9 1.8 1.4 3.7 1.4 1.9 0 3.1-0.5 3.7-1.4 0.6-0.9 0.9-2.6 0.9-5s-0.3-4-1-4.9 -1.8-1.3-3.6-1.3c-1.7 0-2.9 0.4-3.6 1.3C20.9 10.3 20.6 11.9 20.6 14.3z"/>
      <path d="M45.5 20.5l0.9-0.1 0.1 1.5c-2.3 0.3-4.2 0.4-5.8 0.4 -2.2 0-3.7-0.7-4.6-2 -0.9-1.3-1.3-3.3-1.3-5.9 0-5.3 2.1-8 6.3-8 2 0 3.5 0.6 4.5 1.7 1 1.1 1.5 3 1.5 5.5L47 15.2H36.6c0 1.9 0.3 3.3 1 4.2 0.6 0.9 1.7 1.4 3.3 1.4S44 20.6 45.5 20.5zM36.6 13.6h8.6c0-2-0.3-3.4-1-4.3 -0.7-0.9-1.7-1.3-3.2-1.3 -1.5 0-2.6 0.4-3.3 1.3S36.6 11.7 36.6 13.6z"/>
      <path d="M52.6 22h-1.8V6.8h1.8v1.1c1.7-1 3.4-1.4 5-1.4 2 0 3.4 0.5 4.1 1.6 0.7 1.1 1 3.1 1 5.9v8h-1.8v-7.9c0-2.3-0.2-3.9-0.7-4.7 -0.4-0.8-1.4-1.2-2.9-1.2 -0.7 0-1.5 0.1-2.2 0.3 -0.8 0.2-1.4 0.4-1.8 0.7l-0.6 0.3V22z"/>
      <path d="M72.5 6.8h1.9l3.4 13.7h0.4l4-13.4h1.9l4 13.4h0.5l3.4-13.7h1.9L89.9 22h-3.2L83.1 9.5 79.5 22h-3.1L72.5 6.8z"/>
      <path d="M106.9 20.5l0.9-0.1 0.1 1.5c-2.3 0.3-4.2 0.4-5.8 0.4 -2.2 0-3.7-0.7-4.6-2 -0.9-1.3-1.3-3.3-1.3-5.9 0-5.3 2.1-8 6.3-8 2 0 3.5 0.6 4.5 1.7 1 1.1 1.5 3 1.5 5.5l-0.1 1.5H98c0 1.9 0.3 3.3 1 4.2 0.6 0.9 1.7 1.4 3.3 1.4S105.3 20.6 106.9 20.5zM98 13.6h8.6c0-2-0.3-3.4-1-4.3 -0.7-0.9-1.7-1.3-3.2-1.3 -1.5 0-2.6 0.4-3.3 1.3S98 11.7 98 13.6z"/>
      <path d="M117.6 6.8h1.9l3.4 13.7h0.4l4-13.4h1.9l4 13.4h0.5l3.4-13.7h1.9L135 22h-3.2l-3.6-12.6L124.6 22h-3.1L117.6 6.8z"/>
      <path d="M152 20.5l0.9-0.1 0.1 1.5c-2.3 0.3-4.2 0.4-5.8 0.4 -2.2 0-3.7-0.7-4.6-2 -0.9-1.3-1.3-3.3-1.3-5.9 0-5.3 2.1-8 6.3-8 2 0 3.5 0.6 4.5 1.7 1 1.1 1.5 3 1.5 5.5l-0.1 1.5h-10.4c0 1.9 0.3 3.3 1 4.2 0.6 0.9 1.7 1.4 3.3 1.4S150.4 20.6 152 20.5zM143.1 13.6h8.6c0-2-0.3-3.4-1-4.3 -0.7-0.9-1.7-1.3-3.2-1.3 -1.5 0-2.6 0.4-3.3 1.3S143.1 11.7 143.1 13.6z"/>
      <path d="M157.4 22V0h1.8v22H157.4z"/>
    </g>
    <g>
      <path d="M64.9 32.4l-2.7 13.9h-7.9l4.8-13.9H64.9zM75.2 32.4l-2.7 13.9h-7.9l4.8-13.9H75.2z"/>
      <path d="M81.4 70.6V32.3h24.4v6.8H89.2v11.3h13.6v6.8H89.2v13.5H81.4z"/>
      <path d="M111.3 70.6V32.3h24.4v6.8h-16.7v11.3h13.6v6.8h-13.6v13.5H111.3z"/>
      <path d="M139.3 46.2l2.6-13.9h7.9l-4.8 13.9H139.3zM149.7 46.2l2.6-13.9h7.9l-4.8 13.9H149.7z"/>
    </g>
  </g>
</svg>