<?xml version="1.0" encoding="utf-8"?>
<!-- Generator: Adobe Illustrator 18.0.0, SVG Export Plug-In . SVG Version: 6.00 Build 0)  -->
<!DOCTYPE svg PUBLIC "-//W3C//DTD SVG 1.1//EN" "http://www.w3.org/Graphics/SVG/1.1/DTD/svg11.dtd">
<svg version="1.1" id="Layer_1" xmlns="http://www.w3.org/2000/svg" xmlns:xlink="http://www.w3.org/1999/xlink" x="0px" y="0px"
	 viewBox="125 0 300 300" enable-background="new 125 0 300 300" xml:space="preserve">
<rect x="125" fill="#00A887" width="300" height="300"/>
<g>
	<path fill="#FF8300" d="M161.1,242.4c-2.1,3.3-4.5,4.5-7,4.5c-5.7,0-9.6-4.6-9.6-10.1c0-6.6,4.6-10.1,9.2-10.1c4.7,0,6.6,3,7.4,4.6
		h8.6c-3.2-9.8-12-11.7-16-11.7c-8.7,0-16.9,7.2-16.9,17c0,10.6,8.9,17.1,17,17.1c7.5,0,13.5-4.4,16-11.4H161.1z M206,220.8h-7v4
		h-0.1c-0.2-0.5-4.1-5.1-10.7-5.1c-8.9,0-16,7-16,16.9c0,10.7,7.3,17.3,15.6,17.3c4,0,8.7-2.2,11.2-5v4h7v-32.1H206z M198.7,236.7
		c0,6-4,10.1-9.4,10.1c-5.5,0-9.5-4.5-9.5-9.8c0-4.7,3.3-10.2,9.5-10.2C193.8,226.7,198.7,230,198.7,236.7 M211.9,252.7h7.7v-18
		c0-1.9,0-7.4,6.9-7.7v-7.4h-0.6c-4,0-5.5,1.8-6.8,3.9H219v-2.8h-7C211.9,220.8,211.9,252.7,211.9,252.7z M261.1,220.8h-7v4H254
		c-0.2-0.5-4.1-5.1-10.6-5.1c-8.9,0-16,7-16,16.9c0,10.7,7.3,17.3,15.6,17.3c4,0,8.7-2.2,11.2-5v4h7V220.8L261.1,220.8z
		 M253.9,236.7c0,6-4,10.1-9.4,10.1c-5.5,0-9.5-4.5-9.5-9.8c0-4.7,3.3-10.2,9.5-10.2C249.1,226.7,253.9,230,253.9,236.7 M267,252.7
		h7.7v-15.2c0-2.7,0-6.1,1.3-8c1.3-2.2,3.9-2.8,5.2-2.8c6.4,0,6.4,7.7,6.4,10.2v15.8h7.7v-17.3c0-2.4,0-7.9-2.9-11.4
		c-2.6-3.2-6.8-4.4-9.6-4.4c-4.9,0-7.5,2.7-8.7,3.9v-2.8h-7V252.7z M301.2,252.7h7.7v-15.2c0-2.7,0-6.1,1.3-8
		c1.3-2.2,3.9-2.8,5.2-2.8c6.4,0,6.4,7.7,6.4,10.2v15.8h7.7v-17.3c0-2.4,0-7.9-2.9-11.4c-2.6-3.2-6.7-4.4-9.5-4.4
		c-4.9,0-7.5,2.7-8.7,3.9v-2.8h-7v32H301.2z"/>
	<path fill="#FFFFFF" d="M336.4,252.7h7.7v-7.7h-7.7V252.7z M350.8,252.7h7.7v-15.2c0-2.7,0-6.1,1.3-8c1.3-2.2,3.9-2.8,5.2-2.8
		c6.4,0,6.4,7.7,6.4,10.2v15.8h7.7v-17.3c0-2.4,0-7.9-2.9-11.4c-2.6-3.2-6.8-4.4-9.5-4.4c-4.9,0-7.5,2.7-8.7,3.9v-2.8h-7v32H350.8z
		 M405.5,220.8v16.4c0,5.1-1.6,9.6-6.4,9.6c-6.7,0-6.7-7-6.7-9.7v-16.3h-7.7v16.8c0,2.7,0,7.9,2.3,11.3c1.6,2.2,4.9,5.1,10.7,5.1
		c4.9,0,6.9-2.6,8.3-4.3h0.1v3.3h7v-32.2H405.5z"/>
	<g>
		<path fill="#FFFFFF" d="M213.5,265.5h1.9v2.1c0.7-1.7,2.4-2.4,4.3-2.4v1.9c-1.1,0.1-1.8,0.4-2.7,1c-1.3,1.2-1.6,2.2-1.6,3.9v8.1
			h-1.9V265.5z"/>
		<path fill="#FFFFFF" d="M222.9,273.5c0.1,2.8,2.8,5.1,5.5,5.1c2.2,0,4.4-1.2,5.2-3.2h2.1c-1,2.9-4,5.1-7.2,5.1
			c-4.3,0-7.7-3.4-7.7-7.7s3.4-7.7,7.7-7.7c2.3,0,4.4,1.1,5.8,2.8c1.3,1.7,1.7,3.4,1.7,5.5C236,273.5,222.9,273.5,222.9,273.5z
			 M234.2,271.7c-0.5-2.6-2.9-4.6-5.6-4.6c-2.8,0-5.2,1.9-5.7,4.6H234.2z"/>
		<path fill="#FFFFFF" d="M253.4,275.8c-1.2,2.8-3.9,4.6-7,4.6c-4.4,0-8-3.2-8-7.7c0-4.4,3.6-7.7,7.9-7.7c3.2,0,6.1,1.8,7.2,4.7
			h-2.2c-1-1.7-2.9-2.8-5-2.8c-3.3,0-6,2.4-6,5.7c0,3.3,2.6,5.8,5.8,5.8c2.3,0,3.9-1,5.1-2.7h2.2V275.8z"/>
		<path fill="#FFFFFF" d="M256.2,260.3h1.9v19.8h-1.9V260.3z"/>
		<path fill="#FFFFFF" d="M276.5,280.1h-1.9v-2.8c-1.1,2.1-3.4,3.2-5.7,3.2c-2.2,0-4.6-1-6.4-3.2c-0.5-0.6-1.5-2.4-1.5-4.6
			c0-1.9,1-4,1.6-4.5c2.2-2.4,4.3-3.2,6.3-3.2c2.3,0,4.6,1,5.7,3.2v-2.8h1.9V280.1z M263,272.8c0,3.2,2.8,5.7,6,5.7
			c3,0,5.7-2.7,5.7-5.7c0-3.3-2.4-5.8-5.7-5.8C265.6,267.1,263,269.6,263,272.8z"/>
		<path fill="#FFFFFF" d="M279.9,265.5h1.8v1.9c0.7-1.6,2.3-2.2,3.9-2.2c1.9,0,3.5,0.9,4.7,2.2c0.1,0.2,0.2,0.4,0.4,0.6
			c0.1-0.2,0.2-0.4,0.2-0.6c1-1.5,2.9-2.2,4.6-2.2c1.6,0,3.2,0.7,4.5,2.2c1.2,1.2,1.3,2.7,1.3,4.4v8.4h-1.9v-8.3
			c0-1.1-0.1-2.3-0.7-3.2c-0.9-1.1-1.9-1.7-3.3-1.7c-1.2,0-2.6,0.6-3.3,1.7c-0.6,0.9-0.6,2.2-0.6,3.3v8.1h-1.9v-8.4
			c0-1.1,0-1.9-0.7-2.9c-0.7-1.1-1.9-1.8-3.3-1.8c-1.2,0-2.4,0.5-3.2,1.6c-0.7,1-0.7,2.1-0.7,3.2v8.4h-1.8V265.5z"/>
		<path fill="#FFFFFF" d="M306.4,273.5c0.1,2.8,2.8,5.1,5.5,5.1c2.2,0,4.4-1.2,5.2-3.2h2.1c-1,2.9-4,5.1-7.2,5.1
			c-4.3,0-7.7-3.4-7.7-7.7s3.4-7.7,7.7-7.7c2.3,0,4.4,1.1,5.8,2.8c1.3,1.7,1.7,3.4,1.7,5.5C319.5,273.5,306.4,273.5,306.4,273.5z
			 M317.5,271.7c-0.5-2.6-2.9-4.6-5.6-4.6c-2.8,0-5.2,1.9-5.7,4.6H317.5z"/>
		<path fill="#FFFFFF" d="M322.3,265.5h1.8v1.9c0.7-1.6,2.3-2.2,3.9-2.2c1.9,0,3.5,0.9,4.7,2.2c0.1,0.2,0.2,0.4,0.4,0.6
			c0.1-0.2,0.2-0.4,0.2-0.6c1-1.5,2.9-2.2,4.6-2.2c1.6,0,3.2,0.7,4.5,2.2c1.2,1.2,1.3,2.7,1.3,4.4v8.4h-1.9v-8.3
			c0-1.1-0.1-2.3-0.7-3.2c-0.9-1.1-1.9-1.7-3.3-1.7c-1.2,0-2.6,0.6-3.3,1.7c-0.6,0.9-0.6,2.2-0.6,3.3v8.1h-1.8v-8.4
			c0-1.1,0-1.9-0.7-2.9c-0.7-1.1-1.9-1.8-3.3-1.8c-1.2,0-2.4,0.5-3.2,1.6c-0.7,1-0.7,2.1-0.7,3.2v8.4h-1.9L322.3,265.5L322.3,265.5z
			"/>
		<path fill="#FFFFFF" d="M362.3,280.1h-1.9v-2.8c-1.1,2.1-3.4,3.2-5.7,3.2c-2.2,0-4.6-1-6.4-3.2c-0.5-0.6-1.5-2.4-1.5-4.6
			c0-1.9,1-4,1.6-4.5c2.2-2.4,4.3-3.2,6.3-3.2c2.3,0,4.6,1,5.7,3.2v-2.8h1.9V280.1z M348.8,272.8c0,3.2,2.8,5.7,6,5.7
			c3,0,5.7-2.7,5.7-5.7c0-3.3-2.4-5.8-5.7-5.8C351.4,267.1,348.8,269.6,348.8,272.8z"/>
		<path fill="#FFFFFF" d="M365.7,260.3h1.9v13.9l6.7-8.7h2.6l-5.7,7.3l6.1,7.3h-2.6l-4.7-5.8l-2.3,3v2.8h-1.9V260.3L365.7,260.3z"/>
		<path fill="#FFFFFF" d="M380.5,273.5c0.1,2.8,2.8,5.1,5.5,5.1c2.2,0,4.4-1.2,5.2-3.2h2.1c-1,2.9-4,5.1-7.2,5.1
			c-4.3,0-7.7-3.4-7.7-7.7s3.4-7.7,7.7-7.7c2.3,0,4.4,1.1,5.8,2.8c1.3,1.7,1.7,3.4,1.7,5.5C393.6,273.5,380.5,273.5,380.5,273.5z
			 M391.8,271.7c-0.5-2.6-2.9-4.6-5.6-4.6c-2.8,0-5.2,1.9-5.7,4.6H391.8z"/>
		<path fill="#FFFFFF" d="M396.5,265.5h1.8v2.1c0.7-1.7,2.4-2.4,4.3-2.4v1.9c-1.1,0.1-1.8,0.4-2.7,1c-1.3,1.1-1.5,2.2-1.5,3.8v8.1
			h-1.9V265.5z"/>
		<path fill="#FFFFFF" d="M405.3,275.8c0,1.5,1.1,2.8,2.7,2.8c1.5,0,2.6-1,2.6-2.4c0-1.8-1.3-2.4-2.8-2.8c-1-0.2-1.9-0.6-2.7-1.3
			c-0.7-0.7-1.2-1.7-1.2-2.8c0-2.4,1.9-4.1,4.3-4.1c2.2,0,4,1.8,4,4h-1.9c0-1.3-1-2.1-2.3-2.1c-1.1,0-2.1,1-2.1,2.1
			c0,1.6,1.3,2.1,2.6,2.4c2.2,0.7,4.1,1.6,4.1,4.3c0,2.8-2.1,4.6-4.7,4.6c-2.4,0-4.6-2.2-4.5-4.6H405.3z"/>
	</g>
</g>
</svg>
