<svg version="1.1" id="Logotype" xmlns="http://www.w3.org/2000/svg" xmlns:xlink="http://www.w3.org/1999/xlink" x="0px" y="0px" width="120px" height="120px" viewBox="0 0 120 120" enable-background="new 0 0 120 120" xml:space="preserve"> <g> <path class="path" d="M29.826 48.169c0-18.026 14.156-24.349 30.295-24.349 13.497 0 27.463 4.247 27.463 13.873 0 2.454-1.133 5.663-3.681 9.249 -4.152-9.626-15.101-11.136-23.783-11.136 -8.305 0-14.063 3.209-14.063 13.685v19.441c0 10.57 5.757 13.874 14.063 13.874 8.117 0 13.874-1.794 13.874-12.93v-0.849h-8.966c-6.135 0-9.532-2.455-9.532-12.553 0 0 2.642 1.038 11.137 1.038h23.594v13.778c0 17.649-14.156 23.405-30.106 23.405 -16.139 0-30.295-6.322-30.295-24.35V48.169z"/> </g> <path d="M60 15c24.813 0 45 20.187 45 45 0 24.813-20.187 45-45 45 -24.813 0-45-20.187-45-45C15 35.187 35.187 15 60 15M60 0C26.863 0 0 26.863 0 60c0 33.137 26.863 60 60 60 33.137 0 60-26.863 60-60C120 26.863 93.137 0 60 0L60 0z"/> </svg>